<svg width="52" height="52" viewBox="0 0 52 52" fill="none" xmlns="http://www.w3.org/2000/svg">
<rect x="52" width="52" height="52" rx="4" transform="rotate(90 52 0)" fill="#152351"/>
<path d="M36.1016 22.8125C37.1953 21.9922 38.1797 21.0078 38.9453 19.8594C37.9609 20.2969 36.8125 20.625 35.6641 20.7344C36.8672 20.0234 37.7422 18.9297 38.1797 17.5625C37.0859 18.2188 35.8281 18.7109 34.5703 18.9844C33.4766 17.8359 32 17.1797 30.3594 17.1797C27.1875 17.1797 24.6172 19.75 24.6172 22.9219C24.6172 23.3594 24.6719 23.7969 24.7812 24.2344C20.0234 23.9609 15.7578 21.6641 12.9141 18.2188C12.4219 19.0391 12.1484 20.0234 12.1484 21.1172C12.1484 23.0859 13.1328 24.8359 14.7188 25.875C13.7891 25.8203 12.8594 25.6016 12.0938 25.1641V25.2188C12.0938 28.0078 14.0625 30.3047 16.6875 30.8516C16.25 30.9609 15.7031 31.0703 15.2109 31.0703C14.8281 31.0703 14.5 31.0156 14.1172 30.9609C14.8281 33.2578 16.9609 34.8984 19.4766 34.9531C17.5078 36.4844 15.0469 37.4141 12.3672 37.4141C11.875 37.4141 11.4375 37.3594 11 37.3047C13.5156 38.9453 16.5234 39.875 19.8047 39.875C30.3594 39.875 36.1016 31.1797 36.1016 23.5781C36.1016 23.3047 36.1016 23.0859 36.1016 22.8125Z" fill="white"/>
</svg>
